<?xml version="1.0" encoding="utf-8"?>
<!-- Generator: Adobe Illustrator 25.4.1, SVG Export Plug-In . SVG Version: 6.00 Build 0)  -->
<svg version="1.1" id="Layer_1" xmlns="http://www.w3.org/2000/svg" xmlns:xlink="http://www.w3.org/1999/xlink" x="0px" y="0px"
	 viewBox="0 0 531.3 390.5" style="enable-background:new 0 0 531.3 390.5;" xml:space="preserve">
<style type="text/css">
	.st0{fill:#FFFFFF;}
	.st1{fill:#2C3E50;}
</style>
<path id="Layer_1-2" class="st0" d="M432.3,324.6L432.3,324.6c-55.6,23.1-119.4-3.2-142.5-58.7c0,0,0,0,0,0L185.5,15.4l0,0l0,0
	C241.1-7.7,304.9,18.6,328,74.1L432.3,324.6C432.3,324.6,432.3,324.6,432.3,324.6z"/>
<path id="Layer_1-2_00000085943904199986023370000015605460735055162022_" class="st1" d="M222.7,278c-5.8-13.9-10.5-28.1-15.1-42.4
	c-9-29.3-40.1-45.7-69.4-36.7s-45.7,40.1-36.7,69.4c0.7,2.3,1.6,4.6,2.6,6.8c2.1,4.8,4.9,9.3,8.3,13.3
	c29.7,40.6,83.4,55.6,129.9,36.2L222.7,278z"/>
</svg>
