<?xml version="1.0" encoding="utf-8"?>
<!-- Generator: Adobe Illustrator 25.4.1, SVG Export Plug-In . SVG Version: 6.00 Build 0)  -->
<svg version="1.1" id="Layer_1" xmlns="http://www.w3.org/2000/svg" xmlns:xlink="http://www.w3.org/1999/xlink" x="0px" y="0px"
	 viewBox="0 0 517 517" style="enable-background:new 0 0 517 517;" xml:space="preserve">
<style type="text/css">
	.st0{fill:#1ABC9C;stroke:#000000;stroke-miterlimit:10;}
	.st1{fill:#FFFFFF;}
	.st2{fill:#2C3E50;}
</style>
<circle class="st0" cx="258.5" cy="258.5" r="233.7"/>
<path id="Layer_1-2" class="st1" d="M448.5,387.9L448.5,387.9c-55.6,23.1-119.4-3.2-142.5-58.7l0,0L201.7,78.7l0,0l0,0
	c55.6-23.1,119.4,3.2,142.5,58.7L448.5,387.9L448.5,387.9z"/>
<path id="Layer_1-2_00000085943904199986023370000015605460735055162022_" class="st2" d="M238.9,341.2
	c-5.8-13.9-10.5-28.1-15.1-42.4c-9-29.3-40.1-45.7-69.4-36.7c-29.3,9-45.7,40.1-36.7,69.4c0.7,2.3,1.6,4.6,2.6,6.8
	c2.1,4.8,4.9,9.3,8.3,13.3c29.7,40.6,83.4,55.6,129.9,36.2L238.9,341.2z"/>
</svg>
